<svg id="Слой_1" data-name="Слой 1" xmlns="http://www.w3.org/2000/svg" viewBox="0 0 55.67 32">
  <defs>
    <style>
      .cls-1 {
        fill: #0c0a0b;
      }

      .cls-2 {
        fill: #0e0e10;
      }

      .cls-3 {
        fill: #a5a4a4;
      }

      .cls-4 {
        fill: #171717;
      }

      .cls-5 {
        fill: #0c0d0d;
      }

      .cls-6 {
        fill: #5e5e5e;
      }

      .cls-7 {
        fill: #e5231d;
      }

      .cls-8 {
        fill: #e5231e;
      }

      .cls-9 {
        fill: #f5e1ef;
      }

      .cls-10 {
        fill: #33499a;
      }

      .cls-11 {
        fill: #0f0f0f;
      }

      .cls-12 {
        fill: #050506;
      }

      .cls-13 {
        fill: #040203;
      }

      .cls-14 {
        fill: #0a090c;
      }

      .cls-15 {
        fill: #181819;
      }
    </style>
  </defs>
  <g>
    <path class="cls-1" d="M9.47,43.56v-.43a6.26,6.26,0,0,0,0-.75c-.1-.88-.24-1.79-.35-2.67A.3.3,0,0,0,9,39.52c-.08.08-.16.13-.18.21-.24.43-.49.86-.7,1.29-.64,1.15-1.26,2.33-1.9,3.48a1.49,1.49,0,0,1-1.53.75A1.52,1.52,0,0,1,3.64,43c.43-.8.85-1.6,1.28-2.38s.78-1.42,1.18-2.14S6.93,37,7.33,36.2s.8-1.5,1.23-2.24l.89-1.61c.1-.21.05-.37-.19-.43h0A2.22,2.22,0,0,0,9,31.73c-.88-.1-1.79-.18-2.68-.26-.16,0-.26.05-.29.24a6.77,6.77,0,0,0,0,2.11c0,.16.1.16.24.11A2.41,2.41,0,0,1,7,33.71a.61.61,0,0,1,.64.65.72.72,0,0,1-.38.69,5.07,5.07,0,0,1-1,.46A.58.58,0,0,1,5.35,35c0-.25,0-.49-.11-.7a6.84,6.84,0,0,1,.06-3c.08-.32.24-.54.56-.57.48,0,.94,0,1.42,0a5.93,5.93,0,0,1,.88.1A.76.76,0,0,0,8,30.61c-.35-.37-.73-.72-1.07-1.1-.14-.13-.3-.26-.46-.42h0c-.19-.19-.37-.38-.53-.57H6l-.43-.42h0L5.43,28h0l-.32-.32h0a2.23,2.23,0,0,0-.21-.22h0l-.33-.32h0l-.21-.21h0l-.21-.22h0c-.06-.08-.08-.13-.14-.21-1.1-1.12-2.17-2.25-3.26-3.37A1.51,1.51,0,0,1,.75,21a1.5,1.5,0,0,1,2.14,0l.88.89,1.85,1.84.88.81h0a.52.52,0,0,0,.14.21c.56.56,1.09,1.15,1.65,1.71.14.14.27.08.43.06a2.13,2.13,0,0,1,.89-.14,1.49,1.49,0,0,1,1.12,2.2c-.08.16-.13.29.08.37l.11.11.1.11h0c.09.16.17.1.25,0s.13-.22.21-.33a.38.38,0,0,0,0-.5,1.37,1.37,0,0,1-.16-1.66,1.4,1.4,0,0,1,1.45-.78c.29,0,.4-.08.53-.32.51-1,1.05-1.93,1.56-2.89s1.09-2,1.66-3a3,3,0,0,1,1.79-1.45.86.86,0,0,1,1.12.62,1,1,0,0,1,.08.4,4,4,0,0,1-.69,2.59c-.43.75-.83,1.5-1.26,2.25s-.8,1.47-1.18,2.2-.83,1.47-1.23,2.19S14.29,30,13.84,30.8c-.17.27-.17.32.13.45a12.3,12.3,0,0,0,3,.91.87.87,0,0,0,.64-.1,6.4,6.4,0,0,0,1.47-1.74,2.65,2.65,0,0,1-.42-.38,2.35,2.35,0,0,1-.3-.45.64.64,0,0,1,.19-.86,1.3,1.3,0,0,1,1.45.08,1.06,1.06,0,0,1,.18,1.23,8.51,8.51,0,0,1-1.63,2.36,2.1,2.1,0,0,1-1,.67,3.39,3.39,0,0,1-1.77-.22c-.62-.16-1.21-.35-1.87-.56.08.11.13.16.16.21.42.46.85.91,1.31,1.37s.64.64,1,.93h0l.11.11h0l.32.32h0l.1.11h0c.22.21.43.43.67.64h0l.11.11h0l.11.11h0l.32.32h0a.41.41,0,0,0,.08.13c.59.62,1.2,1.23,1.79,1.85.75.77,1.53,1.58,2.28,2.38a1.47,1.47,0,0,1-.11,2,1.52,1.52,0,0,1-2,.06c-.3-.27-.57-.54-.83-.81l-.59-.53h0c-.19-.19-.38-.38-.54-.56h0l-.43-.43h0l-.1-.11h0l-.32-.32h0a2.08,2.08,0,0,0-.22-.21h0l-.53-.54h0c-.19-.19-.38-.37-.57-.53h0l-.1-.11h0a1.46,1.46,0,0,0-.57-.59.9.9,0,0,0,0,.32c.22,1.42.4,2.84.62,4.23,0,.19.1.24.29.21a2.81,2.81,0,0,1,.64,0,.4.4,0,0,1,.35.67c-.08.1-.19.24-.29.27a5.47,5.47,0,0,1-.91.21c-.57.08-.78-.13-.83-.7-.11-1-.24-2-.38-3s-.32-2.09-.51-3.1a.27.27,0,0,0-.1-.19c-.38-.38-.75-.72-1.1-1.1h0c-.32-.32-.64-.67-1-1h0L12,34.78h0l-.19-.21-.18.29c-.19.33-.35.67-.54,1-.4.74-.83,1.49-1.23,2.24a1.21,1.21,0,0,0-.08.62c0,.32.11.64.16,1,.16,1.13.3,2.22.43,3.35,0,.1,0,.24.05.34s.27.08.43.11.46.05.67.11.35.19.29.4-.16.35-.29.37a7.12,7.12,0,0,1-1.39.27.49.49,0,0,1-.54-.43C9.55,43.94,9.53,43.75,9.47,43.56ZM10.3,29c-.08,0-.13.08-.21.11A1.55,1.55,0,0,1,8,26.94a.3.3,0,0,0-.08-.4c-1.8-1.82-3.59-3.64-5.38-5.43a.9.9,0,1,0-1.29,1.26c1,1,1.9,2,2.87,3L8.8,30.08c.46.45.91.91,1.4,1.36.13.11.1.21.05.35-.43.77-.86,1.55-1.26,2.3C7.41,37,5.83,39.87,4.25,42.73a1.6,1.6,0,0,0-.1,1.1.69.69,0,0,0,.85.48,1.38,1.38,0,0,0,.86-.64c.4-.72.8-1.45,1.2-2.2,1.5-2.75,3-5.51,4.5-8.24,1.69-3.07,3.35-6.12,5-9.2.78-1.39,1.53-2.81,2.28-4.2A.9.9,0,1,0,17.29,19l-1.21,2.17c-.83,1.52-1.66,3.05-2.51,4.57a.34.34,0,0,0,0,.46,1.49,1.49,0,0,1-1.1,2.59c-.59-.05-.75.19-.93.59l-.08.14c-.16.29-.24.32-.51.13S10.54,29.22,10.3,29Zm2.89,2.94c0,.06-.08.08-.08.14l-.72,1.28a.33.33,0,0,0,.08.45l6.45,6.56c.59.59,1.15,1.18,1.74,1.74a.87.87,0,0,0,1.26,0,.9.9,0,0,0,0-1.26c-.11-.13-.25-.27-.38-.4-2.33-2.38-4.68-4.79-7-7.17C14.13,32.83,13.67,32.4,13.19,31.92Zm.35-3.82a.81.81,0,0,1-.43-.83.89.89,0,0,1,.48-.81,1.26,1.26,0,0,0-1.82-.21,1.32,1.32,0,0,0-.13,1.87A1.27,1.27,0,0,0,13.54,28.1ZM10.38,27a1.28,1.28,0,1,0-.1,1.58c-.46-.16-.49-.56-.49-.94A.74.74,0,0,1,10.38,27Z" transform="translate(-0.15 -13.34)"/>
    <path class="cls-2" d="M32.89,35.24c0-.08-.08-.19-.13-.27a9.59,9.59,0,0,1-1.07-2.09A11,11,0,0,1,31,30.29a16,16,0,0,1-.14-2.3c0-.7.11-1.39.16-2.09,0,0,0-.11,0-.16a1.8,1.8,0,0,1-.19.05c-1,.81-2,1.61-3.05,2.39a6.77,6.77,0,0,1-1.15.64.9.9,0,0,1-1.23-.38c-.17-.32-.43-.56-.59-.88a3.17,3.17,0,0,1-.16-2.49A1.64,1.64,0,0,1,26.17,24c.33,0,.57.11.62.43a4.06,4.06,0,0,1,.08,1.26c0,.4-.75.62-1.18.38a.91.91,0,0,0-.16-.11c-.13-.08-.21,0-.21.13A2.67,2.67,0,0,0,26,27.75c.13.18.35.13.54,0a17.62,17.62,0,0,0,2.67-1.93c.57-.51,1.15-1,1.69-1.52a9.14,9.14,0,0,0,.91-1.05,4.32,4.32,0,0,0,.48-.93,8.11,8.11,0,0,1,1.31-2c.43-.49.89-1,1.37-1.42a8.77,8.77,0,0,1,1.07-.8c.21-.14.35-.27.24-.57a1.55,1.55,0,0,1,2.89-1.09.32.32,0,0,0,.4.18c.75-.08,1.5-.13,2.22-.18.3,0,.54,0,.73-.38a1.43,1.43,0,0,1,1.74-.77,1.4,1.4,0,0,1,1.15,1.39c0,.51.24.67.59.83a9.49,9.49,0,0,1,3.29,2.54c.43.51.8,1.07,1.2,1.58a1,1,0,0,0,.27.18A2.64,2.64,0,0,1,51,22c.73.59,1.45,1.2,2.15,1.79s1.31,1.15,2,1.74a3.65,3.65,0,0,1,.45.51c.32.37.32.64-.05,1s-.8.7-1.23,1c-.67.48-1.34.93-2,1.42-.05,0-.08.1-.1.18-.08.43-.14.86-.22,1.29a12,12,0,0,1-3.08,5.91,2.46,2.46,0,0,0-.26.54c-.19.32-.43.61-.62.93-.35.67-.64,1.34-1,2a.49.49,0,0,0,.1.61c.51.54,1,1.13,1.48,1.69.18.21.4.45.24.75s-.46.29-.75.32l-.83.08a.76.76,0,0,1-.81-.22.78.78,0,0,1-.1-.5c0-.11.24-.19.37-.24s.35,0,.51,0a.25.25,0,0,0,.19-.11s0-.13-.08-.19c-.38-.4-.72-.83-1.13-1.2a.87.87,0,0,1-.21-1,15,15,0,0,0,.56-1.39c0-.05,0-.16,0-.21a.75.75,0,0,0-.21,0c-.7.3-1.37.65-2.06.89a9.41,9.41,0,0,1-2.09.4A12.11,12.11,0,0,1,40,39.9a6.64,6.64,0,0,1-1.36-.3,12.32,12.32,0,0,1-1.93-.77,16.9,16.9,0,0,1-1.82-1.21c-.27-.21-.51-.45-.78-.69,0,0-.08-.08-.13-.08a7.38,7.38,0,0,1-2.55-1.08c-1-.53-2-1.17-3-1.79a3.41,3.41,0,0,1-.64-.51.74.74,0,0,1-.06-1.07,4.47,4.47,0,0,1,.73-.64.77.77,0,0,1,1.09.16.6.6,0,0,1-.29.94c-.4.16-.59.21-.05.53,1.07.65,2.16,1.26,3.26,1.88a.47.47,0,0,0,.16,0C32.84,35.27,32.87,35.27,32.89,35.24Zm18.93-7c0-.05,0-.11,0-.16,0-.48-.05-1-.1-1.47a12.7,12.7,0,0,0-1.53-4.55,10.39,10.39,0,0,0-4.76-4.39.3.3,0,0,0-.4.08,2.85,2.85,0,0,1-.75.51,1.48,1.48,0,0,1-1.93-1.12c0-.17,0-.3-.3-.3a10.33,10.33,0,0,0-2.54.24c-.08,0-.19.14-.19.22a1.57,1.57,0,0,1-2.59,1.07.24.24,0,0,0-.24,0A18.91,18.91,0,0,0,35,19.51a11.45,11.45,0,0,0-3.18,5.11,12.47,12.47,0,0,0-.41,5.43,12,12,0,0,0,1.93,5.06A10.34,10.34,0,0,0,37,38.45,9.12,9.12,0,0,0,44.8,39a10.28,10.28,0,0,0,5.28-4.39,12.74,12.74,0,0,0,1.58-4c.05-.29.08-.59.13-.91-.72.24-1,.16-1.28-.24a.91.91,0,0,1,.21-1.15C51,27.91,51.28,27.91,51.82,28.23Zm-.48-4.9a14.29,14.29,0,0,1,.91,5s0,0,.08.06l2.51-2A44.53,44.53,0,0,0,51.34,23.33ZM43.41,17.9A1.23,1.23,0,0,0,45,17.13a1.26,1.26,0,0,0-.78-1.56,1.23,1.23,0,0,0-1.58.83C43.49,16.59,43.63,16.83,43.41,17.9Zm-5.94.4A1.21,1.21,0,0,0,39,17.42a1.28,1.28,0,0,0-1-1.53,1.19,1.19,0,0,0-1.37,1C37.36,17,37.68,17.5,37.47,18.3Z" transform="translate(-0.15 -13.34)"/>
    <path class="cls-3" d="M16.38,34.54c-.32-.32-.67-.61-1-.93s-.89-.91-1.31-1.37a1.11,1.11,0,0,1-.16-.21c.64.19,1.25.4,1.87.56a3.36,3.36,0,0,0,1.77.21,2,2,0,0,0,1-.66,9,9,0,0,0,1.63-2.36A1,1,0,0,0,20,28.55a1.3,1.3,0,0,0-1.45-.08.63.63,0,0,0-.19.86,1.48,1.48,0,0,0,.3.45,3.25,3.25,0,0,0,.42.38,6.76,6.76,0,0,1-1.47,1.73.85.85,0,0,1-.64.11,12.58,12.58,0,0,1-3-.91c-.27-.13-.27-.19-.13-.45l1.28-2.33c.4-.75.83-1.47,1.23-2.19s.8-1.48,1.18-2.2.8-1.52,1.26-2.25a4,4,0,0,0,.69-2.59l-.08-.4a.89.89,0,0,0-1.12-.62,3,3,0,0,0-1.79,1.45c-.59,1-1.13,2-1.66,3s-1.05,1.93-1.56,2.89a.48.48,0,0,1-.53.32,1.5,1.5,0,0,0-1.29,2.44.34.34,0,0,1,0,.5c-.08.11-.13.22-.21.33s-.16.16-.25,0c.14-.19.38-.35.38-.54s-.21-.4-.35-.67c-.08.24-.13.38-.19.54s0,.29-.08.45c-.21-.08-.16-.24-.08-.37a1.47,1.47,0,0,0-1.12-2.2,2.13,2.13,0,0,0-.88.14c-.16.05-.3.08-.43-.06-.56-.56-1.13-1.12-1.66-1.71-.06-.05-.08-.13-.14-.21.19.18.41.34.59.53.4.4.81.8,1.18,1.21.13.13.22.18.4.08A3.1,3.1,0,0,1,9.31,26c-.16-.16-.27-.29-.37-.4a.63.63,0,0,1-.16-.7.51.51,0,0,1,.83-.26,4.23,4.23,0,0,1,.5.45c.43.4.43.72,0,1.13.27.26.51.53.83.83a1.84,1.84,0,0,1,.69-1.18c.11-.11.08-.16,0-.27a.91.91,0,0,1-.22-.37c.38.45.62.45,1,0a2.74,2.74,0,0,0,.29-.46.42.42,0,0,0-.08-.61.39.39,0,0,0-.58.05,7.41,7.41,0,0,0-.65.72c0-.43.35-.61.62-.83a.51.51,0,0,1,.72,0,.55.55,0,0,1,.08.75c-.13.24-.29.48-.45.72a.58.58,0,0,0,.83-.24c.32-.59.64-1.15.93-1.71s.75-1.42,1.15-2.12.7-1.15,1-1.74a3.3,3.3,0,0,1,1-1.25,2.91,2.91,0,0,1,1.12-.54,1,1,0,0,1,1.26,1,3.43,3.43,0,0,1-.27,1.95c-.21.49-.51.94-.75,1.4s-.45.83-.67,1.25c-.4.73-.8,1.42-1.2,2.14s-.75,1.37-1.1,2-.61,1.12-.91,1.68-.51.91-.75,1.39c0,.06.06.19.11.22.29.13.62.29.94.4.59.19,1.2.32,1.82.51a1,1,0,0,0,1-.32c.32-.4.64-.83,1-1.23.11-.14.06-.24,0-.35a1.36,1.36,0,0,1-.53-1.07.59.59,0,0,1,.32-.59,1.43,1.43,0,0,1,1.55.05,1.2,1.2,0,0,1,.27,1.29,3.43,3.43,0,0,1-.43.88,19.81,19.81,0,0,1-1.47,1.82,1.76,1.76,0,0,1-1.93.45c-.67-.18-1.34-.37-2.06-.5,0,.05.08.1.13.16.54.56,1.1,1.09,1.63,1.66A1.21,1.21,0,0,0,16.38,34.54ZM8.86,25.15a1.17,1.17,0,0,0,1,.94c.14,0,.33-.05.38-.14a.4.4,0,0,0,0-.42,4.27,4.27,0,0,0-.78-.75C9.18,24.54,8.86,24.75,8.86,25.15Z" transform="translate(-0.15 -13.34)"/>
    <path class="cls-3" d="M9.28,31.87c.25.08.3.21.19.43l-.88,1.6c-.4.75-.8,1.5-1.23,2.25s-.83,1.5-1.23,2.25S5.35,39.82,5,40.54s-.86,1.6-1.29,2.38a1.52,1.52,0,1,0,2.63,1.52c.64-1.15,1.28-2.32,1.9-3.47.24-.43.45-.86.69-1.29a1.8,1.8,0,0,1,.19-.21c0,.1.08.13.08.18.11.89.24,1.77.35,2.68a6.26,6.26,0,0,1,0,.75c0-.13-.08-.27-.11-.38-.11-.93-.24-1.87-.35-2.83,0,0,0,0,0-.14-.13.25-.27.46-.37.67-.46.81-.89,1.64-1.34,2.44-.32.61-.64,1.23-1,1.82a1.5,1.5,0,0,1-1.66.64,1.62,1.62,0,0,1-1-2.51c.16-.27.29-.54.43-.81.35-.61.69-1.23,1-1.87s.77-1.45,1.15-2.17l.88-1.6.54-1c.26-.48.53-1,.77-1.44l.88-1.58C9.42,32.16,9.34,32,9.28,31.87Z" transform="translate(-0.15 -13.34)"/>
    <path class="cls-3" d="M6.5,29a4.68,4.68,0,0,1,.46.43c.34.35.72.72,1.07,1.1.05.05.05.1.13.21l-.88-.11a13.46,13.46,0,0,0-1.42,0,.6.6,0,0,0-.56.56,6.89,6.89,0,0,0-.06,3c.06.24.06.48.11.69a.59.59,0,0,0,.83.48c.35-.13.7-.29,1-.45a.72.72,0,0,0,.38-.7A.6.6,0,0,0,7,33.66a2.69,2.69,0,0,0-.75.21c-.16.06-.22.09-.24-.1a6.31,6.31,0,0,1,0-2.12.25.25,0,0,1,.29-.24L9,31.68c.11,0,.19.11.27.19a12.4,12.4,0,0,0-2.84-.35c-.21,0-.35.08-.35.29,0,.59,0,1.18,0,1.8,0,0,0,0,0,.08.3-.06.59-.08.86-.14a.67.67,0,0,1,.7.43,1.06,1.06,0,0,1-.17,1A2.85,2.85,0,0,1,6,35.64a.69.69,0,0,1-.7-.48c-.08-.35-.11-.7-.19-1a6.78,6.78,0,0,1,0-2.73c.11-.67.37-.85,1-.85.46,0,.91,0,1.37.05h.29c0-.08-.08-.16-.13-.19-.35-.34-.7-.69-1-1.07A2.84,2.84,0,0,0,6.5,29Z" transform="translate(-0.15 -13.34)"/>
    <path class="cls-3" d="M13.11,35.75c.38.37.75.72,1.1,1.1a.87.87,0,0,1,.11.18c.16,1,.35,2.06.51,3.11s.26,2,.37,3c.05.56.27.78.83.7a3.77,3.77,0,0,0,.91-.22.54.54,0,0,0,.29-.27.41.41,0,0,0-.34-.67,4.76,4.76,0,0,0-.65.06c-.18,0-.26,0-.29-.22-.19-1.41-.4-2.83-.62-4.22a2.21,2.21,0,0,0,0-.32c.27.18.48.32.56.58l-.46-.37c.08.48.17.91.22,1.31L16,41.85c0,.19.05.4.08.59s.11.21.27.18a4,4,0,0,1,.48-.08c.32,0,.59.11.64.35a.7.7,0,0,1-.29.75,2.93,2.93,0,0,1-1.58.3.7.7,0,0,1-.46-.62c-.1-1-.21-2-.34-3s-.33-1.79-.49-2.7c0-.06,0-.11,0-.16a1,1,0,0,0-.51-1.05,3.9,3.9,0,0,1-.46-.45C13.19,35.94,13.17,35.83,13.11,35.75Z" transform="translate(-0.15 -13.34)"/>
    <path class="cls-3" d="M6.47,24.43l-.88-.8L3.74,21.78l-.88-.88a1.49,1.49,0,0,0-2.14,0A1.51,1.51,0,0,0,.72,23c1.1,1.13,2.17,2.25,3.27,3.37a2.14,2.14,0,0,1,.13.22l-.46-.4c-.64-.65-1.31-1.32-1.95-2A16.87,16.87,0,0,1,.48,22.9a1.59,1.59,0,0,1,.21-2.16,1.65,1.65,0,0,1,2.33.1c.56.59,1.15,1.18,1.71,1.77s1.16,1.15,1.74,1.71C6.45,24.35,6.47,24.4,6.47,24.43Z" transform="translate(-0.15 -13.34)"/>
    <path class="cls-3" d="M18.73,41.45c.19.18.41.35.59.53s.54.54.83.81a1.53,1.53,0,0,0,2-.06,1.46,1.46,0,0,0,.1-2c-.72-.8-1.5-1.58-2.27-2.38-.59-.62-1.21-1.23-1.79-1.85a.73.73,0,0,1-.09-.13,3.67,3.67,0,0,1,.46.4c.8.8,1.58,1.6,2.36,2.41l.74.72A6.53,6.53,0,0,1,22.59,41,1.55,1.55,0,0,1,22,43a1.65,1.65,0,0,1-2-.08l-1.26-1.2C18.79,41.63,18.76,41.53,18.73,41.45Z" transform="translate(-0.15 -13.34)"/>
    <path class="cls-4" d="M44,13.75a1,1,0,0,1-.27.35,10.23,10.23,0,0,1-1.12.62.5.5,0,0,1-.43-.08c-.14-.14-.06-.35.11-.46.4-.27.83-.56,1.25-.8C43.81,13.27,44,13.41,44,13.75Z" transform="translate(-0.15 -13.34)"/>
    <path class="cls-5" d="M11.37,25c.22-.24.43-.51.65-.72a.39.39,0,0,1,.58-.05.42.42,0,0,1,.08.61,2.74,2.74,0,0,1-.29.46c-.4.45-.64.45-1,0Z" transform="translate(-0.15 -13.34)"/>
    <path class="cls-3" d="M10.36,42.89c-.14-1.12-.3-2.22-.43-3.34a7.85,7.85,0,0,1-.16-1A1.11,1.11,0,0,1,9.85,38c.4-.75.83-1.5,1.23-2.25.19-.32.35-.67.53-1,.06-.08.11-.19.19-.29a1.41,1.41,0,0,0,.19.21c-.16,0-.24,0-.32.19-.4.75-.81,1.5-1.23,2.22a5.72,5.72,0,0,0-.59,1.12A1.82,1.82,0,0,0,9.9,39c.13,1,.27,2,.43,3a2.89,2.89,0,0,1,.08.5A.83.83,0,0,1,10.36,42.89Z" transform="translate(-0.15 -13.34)"/>
    <path class="cls-6" d="M37.34,14.37a2.48,2.48,0,0,1,1.42.43c.16.13.29.29.16.45a.64.64,0,0,1-.43.22,10.57,10.57,0,0,1-1.34-.57c-.08,0-.13-.26-.11-.34A.74.74,0,0,1,37.34,14.37Zm.08.11a.71.71,0,0,0-.24.16s0,.18.08.21c.4.19.83.35,1.25.51.08,0,.27-.08.27-.13a.51.51,0,0,0-.13-.33A2,2,0,0,0,37.42,14.48Z" transform="translate(-0.15 -13.34)"/>
    <path class="cls-3" d="M9.47,43.56a5,5,0,0,0,.11.56.49.49,0,0,0,.53.43,11.51,11.51,0,0,0,1.4-.27c.13,0,.24-.24.29-.37s-.11-.35-.29-.4a5.5,5.5,0,0,0-.67-.11l-.43-.11c.37.06.78.06,1.15.14a.46.46,0,0,1,.35.53.47.47,0,0,1-.4.46c-.46.1-.89.18-1.34.24C9.55,44.71,9.34,44.15,9.47,43.56Z" transform="translate(-0.15 -13.34)"/>
    <path class="cls-3" d="M12.12,34.76c.32.32.64.67,1,1a1.28,1.28,0,0,1-.24-.11L12.23,35C12.18,34.92,12.18,34.81,12.12,34.76Z" transform="translate(-0.15 -13.34)"/>
    <path class="cls-3" d="M17.61,35.75c-.21-.22-.43-.43-.67-.64a.75.75,0,0,1,.32.21A3.47,3.47,0,0,1,17.61,35.75Z" transform="translate(-0.15 -13.34)"/>
    <path class="cls-3" d="M6,28.47c.18.19.37.37.53.56A.79.79,0,0,1,6,28.47Z" transform="translate(-0.15 -13.34)"/>
    <path class="cls-3" d="M18.2,40.91c.19.19.37.38.53.56A.79.79,0,0,1,18.2,40.91Z" transform="translate(-0.15 -13.34)"/>
    <path class="cls-3" d="M16.54,39.25l.53.54C16.75,39.76,16.7,39.44,16.54,39.25Z" transform="translate(-0.15 -13.34)"/>
    <path class="cls-3" d="M16,38.69a7.07,7.07,0,0,0,.56.54A7.07,7.07,0,0,1,16,38.69Z" transform="translate(-0.15 -13.34)"/>
    <path class="cls-3" d="M5.54,28l.43.43A.47.47,0,0,1,5.54,28Z" transform="translate(-0.15 -13.34)"/>
    <path class="cls-3" d="M17.74,40.46l.43.43A.45.45,0,0,1,17.74,40.46Z" transform="translate(-0.15 -13.34)"/>
    <path class="cls-3" d="M5.08,27.59l.32.32C5.22,27.91,5.11,27.8,5.08,27.59Z" transform="translate(-0.15 -13.34)"/>
    <path class="cls-3" d="M16.83,35l-.32-.32A.28.28,0,0,1,16.83,35Z" transform="translate(-0.15 -13.34)"/>
    <path class="cls-3" d="M4.55,27l.32.32A.28.28,0,0,1,4.55,27Z" transform="translate(-0.15 -13.34)"/>
    <path class="cls-3" d="M17.32,40l.32.32A.28.28,0,0,1,17.32,40Z" transform="translate(-0.15 -13.34)"/>
    <path class="cls-3" d="M18.14,36.31,17.82,36Z" transform="translate(-0.15 -13.34)"/>
    <path class="cls-3" d="M4.33,26.81l.22.22A1.15,1.15,0,0,1,4.33,26.81Z" transform="translate(-0.15 -13.34)"/>
    <path class="cls-3" d="M4.87,27.37a2.23,2.23,0,0,0,.21.22Z" transform="translate(-0.15 -13.34)"/>
    <path class="cls-3" d="M17.1,39.79a1.08,1.08,0,0,0,.22.21A.63.63,0,0,1,17.1,39.79Z" transform="translate(-0.15 -13.34)"/>
    <path class="cls-3" d="M4.09,26.6l.22.21A2.23,2.23,0,0,0,4.09,26.6Z" transform="translate(-0.15 -13.34)"/>
    <path class="cls-3" d="M15.87,38.58l.11.11Z" transform="translate(-0.15 -13.34)"/>
    <path class="cls-3" d="M16.51,34.65l-.1-.11A.18.18,0,0,0,16.51,34.65Z" transform="translate(-0.15 -13.34)"/>
    <path class="cls-3" d="M12,34.62l.1.11S12,34.68,12,34.62Z" transform="translate(-0.15 -13.34)"/>
    <path class="cls-3" d="M16.94,35.11,16.83,35S16.91,35.05,16.94,35.11Z" transform="translate(-0.15 -13.34)"/>
    <path class="cls-3" d="M17.64,40.35l.1.11Z" transform="translate(-0.15 -13.34)"/>
    <path class="cls-3" d="M5.43,27.91l.11.11A.23.23,0,0,1,5.43,27.91Z" transform="translate(-0.15 -13.34)"/>
    <path class="cls-3" d="M17.72,35.86l-.11-.11A.57.57,0,0,0,17.72,35.86Z" transform="translate(-0.15 -13.34)"/>
    <path class="cls-3" d="M17.82,36l-.1-.11S17.8,35.94,17.82,36Z" transform="translate(-0.15 -13.34)"/>
    <path class="cls-7" d="M10.3,29c.24.21.48.45.72.64s.35.16.51-.13l.08-.14c.19-.4.35-.64.94-.59a1.49,1.49,0,0,0,1.5-2,1.74,1.74,0,0,0-.4-.61.34.34,0,0,1-.06-.46c.83-1.52,1.69-3.05,2.52-4.57L17.32,19a.88.88,0,0,1,1.23-.37.86.86,0,0,1,.34,1.23c-.75,1.42-1.49,2.81-2.27,4.2-1.69,3.08-3.35,6.13-5,9.2q-2.25,4.14-4.5,8.24c-.4.73-.83,1.45-1.2,2.2a1.38,1.38,0,0,1-.86.64.68.68,0,0,1-.86-.48,1.38,1.38,0,0,1,.11-1.1L9,34.09c.43-.78.83-1.55,1.26-2.3a.23.23,0,0,0-.06-.35L8.83,30.08,4.17,25.34c-1-1-1.92-2-2.86-3a.89.89,0,0,1,0-1.31.91.91,0,0,1,1.31.05c1.8,1.82,3.59,3.61,5.38,5.43.11.11.22.22.08.4a1.51,1.51,0,0,0,.22,1.85,1.53,1.53,0,0,0,1.84.3Zm.83,2.11a1.34,1.34,0,0,0,1.42-1.23.45.45,0,0,0-.37-.53c-.22,0-.38.1-.49.37s-.08.32-.18.4a.35.35,0,0,1-.35.06,3.65,3.65,0,0,1-.54-.41.37.37,0,0,0-.51,0,.39.39,0,0,0-.13.53A1.49,1.49,0,0,0,11.13,31.09Z" transform="translate(-0.15 -13.34)"/>
    <path class="cls-8" d="M13.19,31.92c.48.46.94.91,1.39,1.37,2.36,2.38,4.69,4.76,7,7.17.14.13.25.26.38.4a.9.9,0,0,1-1.29,1.26c-.58-.57-1.17-1.15-1.74-1.74-2.14-2.2-4.3-4.39-6.45-6.56a.34.34,0,0,1-.08-.45l.73-1.29C13.11,32,13.14,32,13.19,31.92Z" transform="translate(-0.15 -13.34)"/>
    <path class="cls-9" d="M13.54,28.1a1.27,1.27,0,0,1-1.9,0,1.31,1.31,0,0,1,.13-1.88,1.27,1.27,0,0,1,1.82.22.9.9,0,0,0-.48.8A.81.81,0,0,0,13.54,28.1Z" transform="translate(-0.15 -13.34)"/>
    <path class="cls-9" d="M10.38,27c-.35.11-.56.29-.56.64s0,.78.48.94a1.27,1.27,0,1,1-1.74-1.85A1.25,1.25,0,0,1,10.38,27Z" transform="translate(-0.15 -13.34)"/>
    <path class="cls-3" d="M10.89,28.92,11,29A.29.29,0,0,1,10.89,28.92Z" transform="translate(-0.15 -13.34)"/>
    <path class="cls-10" d="M51.82,28.23c-.54-.35-.78-.32-1.13,0a.94.94,0,0,0-.21,1.15c.24.4.56.48,1.28.24,0,.32-.08.62-.13.91a11.79,11.79,0,0,1-1.58,4A10.37,10.37,0,0,1,44.78,39,9.37,9.37,0,0,1,37,38.37,10.47,10.47,0,0,1,33.3,35,11.43,11.43,0,0,1,31.37,30a12.32,12.32,0,0,1,.4-5.43A11.34,11.34,0,0,1,35,19.43c.49-.43,1-.81,1.53-1.18a.23.23,0,0,1,.24,0,1.57,1.57,0,0,0,2.6-1.07.3.3,0,0,1,.19-.22,10.23,10.23,0,0,1,2.54-.24c.21,0,.24.13.29.29a1.49,1.49,0,0,0,1.93,1.13,2.32,2.32,0,0,0,.75-.51.32.32,0,0,1,.4-.08A10.41,10.41,0,0,1,50.19,22a11.62,11.62,0,0,1,1.52,4.55c0,.48.08,1,.11,1.47A.9.9,0,0,1,51.82,28.23Zm-1.93,0a9.2,9.2,0,0,0-.45-3.08A9.1,9.1,0,0,0,45.71,20,7.32,7.32,0,0,0,39.77,19a8,8,0,0,0-5.19,4,10.24,10.24,0,0,0-1.12,7.76,9.31,9.31,0,0,0,3.69,5.59,7.59,7.59,0,0,0,9.5-.61A9.77,9.77,0,0,0,49.89,28.23Z" transform="translate(-0.15 -13.34)"/>
    <path class="cls-9" d="M43.41,17.9c.22-1.07.11-1.31-.75-1.47a1.22,1.22,0,0,1,1.58-.83A1.24,1.24,0,0,1,45,17.15,1.26,1.26,0,0,1,43.41,17.9Z" transform="translate(-0.15 -13.34)"/>
    <path class="cls-9" d="M37.47,18.3c.21-.8-.11-1.34-.86-1.42a1.18,1.18,0,0,1,1.37-1,1.24,1.24,0,0,1,1,1.53A1.17,1.17,0,0,1,37.47,18.3Z" transform="translate(-0.15 -13.34)"/>
    <path class="cls-11" d="M8.86,25.15c0-.4.32-.61.64-.37a5.51,5.51,0,0,1,.78.75.38.38,0,0,1-.41.56A1.17,1.17,0,0,1,8.86,25.15Z" transform="translate(-0.15 -13.34)"/>
    <path class="cls-12" d="M37.42,14.48a2,2,0,0,1,1.26.42.51.51,0,0,1,.13.33s-.22.16-.27.13c-.43-.16-.83-.32-1.26-.51a.28.28,0,0,1-.08-.21A.51.51,0,0,1,37.42,14.48Z" transform="translate(-0.15 -13.34)"/>
    <path class="cls-13" d="M11.13,31.09A1.4,1.4,0,0,1,10,30.26a.38.38,0,0,1,.13-.53.37.37,0,0,1,.51,0,6.42,6.42,0,0,0,.54.41.35.35,0,0,0,.35-.06,1.12,1.12,0,0,0,.18-.4.47.47,0,0,1,.49-.37c.24,0,.37.24.37.53A1.34,1.34,0,0,1,11.13,31.09Z" transform="translate(-0.15 -13.34)"/>
    <path class="cls-14" d="M49.89,28.23a9.92,9.92,0,0,1-3.21,7.44,7.59,7.59,0,0,1-9.5.61,9.28,9.28,0,0,1-3.7-5.59,10.2,10.2,0,0,1,1.13-7.76,8,8,0,0,1,5.19-4A7.33,7.33,0,0,1,45.74,20a9.08,9.08,0,0,1,3.72,5.11A9.6,9.6,0,0,1,49.89,28.23Zm-.78-.43a18.38,18.38,0,0,0-.26-1.9,8.49,8.49,0,0,0-1.8-3.61,7.13,7.13,0,0,0-5.3-2.76,6.67,6.67,0,0,0-4.07,1.15,8.55,8.55,0,0,0-3.1,3.88,9.72,9.72,0,0,0-.67,2.84,9.32,9.32,0,0,0,.19,2.73,8.73,8.73,0,0,0,1.63,3.66,7.28,7.28,0,0,0,4.15,2.81,6.62,6.62,0,0,0,3.16,0,6.77,6.77,0,0,0,3.59-2.11A9,9,0,0,0,49.11,27.8Z" transform="translate(-0.15 -13.34)"/>
    <path class="cls-15" d="M41.81,20.6c-.08.27-.24.38-.43.27a.91.91,0,0,1-.16-.13c-.19-.19-.35-.16-.51.08s-.35.32-.51.21-.13-.32-.05-.53a.86.86,0,0,1,1.34-.43C41.62,20.15,41.7,20.42,41.81,20.6Z" transform="translate(-0.15 -13.34)"/>
  </g>
</svg>
