<?xml version="1.0" standalone="no"?>
<!DOCTYPE svg PUBLIC "-//W3C//DTD SVG 20010904//EN"
 "http://www.w3.org/TR/2001/REC-SVG-20010904/DTD/svg10.dtd">
<svg version="1.0" xmlns="http://www.w3.org/2000/svg"
 width="64.000000pt" height="64.000000pt" viewBox="0 0 64.000000 64.000000"
 preserveAspectRatio="xMidYMid meet">

<g transform="translate(0.000000,64.000000) scale(0.100000,-0.100000)"
fill="#000000" stroke="none">
<path d="M60 473 c0 -4 33 -40 72 -80 l72 -73 -74 -75 c-41 -41 -71 -78 -67
-82 4 -4 45 30 90 75 l82 82 -80 80 c-74 75 -95 91 -95 73z"/>
<path d="M485 400 l-80 -80 82 -82 c45 -45 86 -79 90 -75 4 4 -26 41 -67 82
l-74 75 72 73 c39 40 72 76 72 80 0 18 -21 2 -95 -73z"/>
</g>
</svg>
